<mxfile host="app.diagrams.net" agent="Mozilla/5.0 (Windows NT 10.0; Win64; x64) AppleWebKit/537.36 (KHTML, like Gecko) Chrome/133.0.0.0 Safari/537.36 Edg/133.0.0.0" version="26.1.0">
  <diagram name="第 1 页" id="b928Ktheh42S2Av8iKqL">
    <mxGraphModel dx="1426" dy="789" grid="1" gridSize="10" guides="1" tooltips="1" connect="1" arrows="1" fold="1" page="1" pageScale="1" pageWidth="827" pageHeight="1169" math="0" shadow="0">
      <root>
        <mxCell id="0" />
        <mxCell id="1" parent="0" />
        <mxCell id="Z2GiQpcKW56BKblZROzc-1" value="" style="shape=actor;whiteSpace=wrap;html=1;" parent="1" vertex="1">
          <mxGeometry x="80" y="270" width="40" height="60" as="geometry" />
        </mxCell>
        <mxCell id="Z2GiQpcKW56BKblZROzc-21" value="" style="rounded=0;whiteSpace=wrap;html=1;" parent="1" vertex="1">
          <mxGeometry x="300" y="250" width="320" height="90" as="geometry" />
        </mxCell>
        <mxCell id="Z2GiQpcKW56BKblZROzc-22" value="" style="rounded=0;whiteSpace=wrap;html=1;" parent="1" vertex="1">
          <mxGeometry x="300" y="360" width="320" height="90" as="geometry" />
        </mxCell>
        <mxCell id="Z2GiQpcKW56BKblZROzc-23" value="" style="rounded=0;whiteSpace=wrap;html=1;" parent="1" vertex="1">
          <mxGeometry x="660" y="370" width="410" height="90" as="geometry" />
        </mxCell>
        <mxCell id="Z2GiQpcKW56BKblZROzc-24" value="" style="points=[];aspect=fixed;html=1;align=center;shadow=0;dashed=0;fillColor=#FF6A00;strokeColor=none;shape=mxgraph.alibaba_cloud.slb_server_load_balancer_01;" parent="1" vertex="1">
          <mxGeometry x="150" y="360" width="47.400000000000006" height="40.2" as="geometry" />
        </mxCell>
        <mxCell id="Z2GiQpcKW56BKblZROzc-27" value="" style="image;sketch=0;aspect=fixed;html=1;points=[];align=center;fontSize=12;image=img/lib/mscae/Cache_Redis_Product.svg;" parent="1" vertex="1">
          <mxGeometry x="580" y="490.5" width="50" height="42" as="geometry" />
        </mxCell>
        <mxCell id="Z2GiQpcKW56BKblZROzc-28" value="" style="points=[];aspect=fixed;html=1;align=center;shadow=0;dashed=0;fillColor=#FF6A00;strokeColor=none;shape=mxgraph.alibaba_cloud.mysql;" parent="1" vertex="1">
          <mxGeometry x="349" y="489" width="48.300000000000004" height="45" as="geometry" />
        </mxCell>
        <mxCell id="Z2GiQpcKW56BKblZROzc-29" value="" style="points=[];aspect=fixed;html=1;align=center;shadow=0;dashed=0;fillColor=#FF6A00;strokeColor=none;shape=mxgraph.alibaba_cloud.kafka;" parent="1" vertex="1">
          <mxGeometry x="460" y="489" width="56.699999999999996" height="42" as="geometry" />
        </mxCell>
        <mxCell id="Z2GiQpcKW56BKblZROzc-32" value="mysql" style="verticalLabelPosition=bottom;html=1;verticalAlign=top;align=center;strokeColor=none;fillColor=#00BEF2;shape=mxgraph.azure.mysql_database;" parent="1" vertex="1">
          <mxGeometry x="349" y="640" width="37.5" height="50" as="geometry" />
        </mxCell>
        <mxCell id="Z2GiQpcKW56BKblZROzc-34" value="web1" style="aspect=fixed;sketch=0;html=1;dashed=0;whitespace=wrap;verticalLabelPosition=bottom;verticalAlign=top;fillColor=#2875E2;strokeColor=#ffffff;points=[[0.005,0.63,0],[0.1,0.2,0],[0.9,0.2,0],[0.5,0,0],[0.995,0.63,0],[0.72,0.99,0],[0.5,1,0],[0.28,0.99,0]];shape=mxgraph.kubernetes.icon2;kubernetesLabel=1;prIcon=pod" parent="1" vertex="1">
          <mxGeometry x="560" y="630" width="50" height="48" as="geometry" />
        </mxCell>
        <mxCell id="Z2GiQpcKW56BKblZROzc-35" value="Elasticsearch" style="shape=rect;fillColor=#0F62FE;aspect=fixed;resizable=0;labelPosition=center;verticalLabelPosition=bottom;align=center;verticalAlign=top;strokeColor=none;fontSize=14;" parent="1" vertex="1">
          <mxGeometry x="197" y="641" width="48" height="48" as="geometry" />
        </mxCell>
        <mxCell id="Z2GiQpcKW56BKblZROzc-36" value="" style="fillColor=#ffffff;strokeColor=none;dashed=0;outlineConnect=0;html=1;labelPosition=center;verticalLabelPosition=bottom;verticalAlign=top;part=1;movable=0;resizable=0;rotatable=0;shape=mxgraph.ibm_cloud.database--elastic" parent="Z2GiQpcKW56BKblZROzc-35" vertex="1">
          <mxGeometry width="24" height="24" relative="1" as="geometry">
            <mxPoint x="12" y="12" as="offset" />
          </mxGeometry>
        </mxCell>
        <mxCell id="Z2GiQpcKW56BKblZROzc-37" value="" style="points=[];aspect=fixed;html=1;align=center;shadow=0;dashed=0;fillColor=#FF6A00;strokeColor=none;shape=mxgraph.alibaba_cloud.prometheus;" parent="1" vertex="1">
          <mxGeometry x="160" y="470" width="48.9" height="48.9" as="geometry" />
        </mxCell>
        <mxCell id="Z2GiQpcKW56BKblZROzc-38" value="Grafana&lt;div&gt;&lt;br&gt;&lt;/div&gt;" style="image;aspect=fixed;html=1;points=[];align=center;fontSize=12;image=img/lib/azure2/other/Grafana.svg;" parent="1" vertex="1">
          <mxGeometry x="454" y="730" width="68" height="52.800000000000004" as="geometry" />
        </mxCell>
        <mxCell id="Sv014W31ntIT713OeG-o-8" value="" style="whiteSpace=wrap;html=1;" vertex="1" parent="1">
          <mxGeometry x="121.95" y="550" width="125" height="29" as="geometry" />
        </mxCell>
      </root>
    </mxGraphModel>
  </diagram>
</mxfile>
